<svg width="135" height="32" viewBox="0 0 135 32" fill="none" xmlns="http://www.w3.org/2000/svg">
<path d="M14.6667 9.33333V12H12V20H14.6667V22.6667H9.33333V9.33333H14.6667Z" fill="#90B0C6"/>
<path d="M20 20H17.3333V22.6667H22.6667V9.33333H17.3333V12H20V20Z" fill="#90B0C6"/>
<path fill-rule="evenodd" clip-rule="evenodd" d="M4 8C4 6.93913 4.42143 5.92172 5.17157 5.17157C5.92172 4.42143 6.93913 4 8 4H24C25.0609 4 26.0783 4.42143 26.8284 5.17157C27.5786 5.92172 28 6.93913 28 8V24C28 25.0609 27.5786 26.0783 26.8284 26.8284C26.0783 27.5786 25.0609 28 24 28H8C6.93913 28 5.92172 27.5786 5.17157 26.8284C4.42143 26.0783 4 25.0609 4 24V8ZM8 6.66667H24C24.3536 6.66667 24.6928 6.80714 24.9428 7.05719C25.1929 7.30724 25.3333 7.64638 25.3333 8V24C25.3333 24.3536 25.1929 24.6928 24.9428 24.9428C24.6928 25.1929 24.3536 25.3333 24 25.3333H8C7.64638 25.3333 7.30724 25.1929 7.05719 24.9428C6.80714 24.6928 6.66667 24.3536 6.66667 24V8C6.66667 7.64638 6.80714 7.30724 7.05719 7.05719C7.30724 6.80714 7.64638 6.66667 8 6.66667Z" fill="#90B0C6"/>
<path d="M34.61 26V6.976H40.265C41.2317 6.976 42.1113 7.063 42.904 7.237C43.716 7.411 44.4023 7.68167 44.963 8.049C45.543 8.41633 45.9877 8.89967 46.297 9.499C46.6257 10.079 46.79 10.7847 46.79 11.616C46.79 12.5633 46.5483 13.4237 46.065 14.197C45.601 14.951 44.9147 15.473 44.006 15.763V15.879C45.166 16.0917 46.1037 16.575 46.819 17.329C47.5343 18.083 47.892 19.1173 47.892 20.432C47.892 21.36 47.718 22.172 47.37 22.868C47.022 23.564 46.529 24.144 45.891 24.608C45.253 25.072 44.4893 25.42 43.6 25.652C42.7107 25.884 41.7343 26 40.671 26H34.61ZM37.017 15.067H39.83C41.454 15.067 42.6237 14.7867 43.339 14.226C44.0543 13.6653 44.412 12.9017 44.412 11.935C44.412 10.833 44.035 10.05 43.281 9.586C42.5463 9.122 41.4347 8.89 39.946 8.89H37.017V15.067ZM37.017 24.086H40.323C41.9663 24.086 43.2423 23.7863 44.151 23.187C45.0597 22.5683 45.514 21.621 45.514 20.345C45.514 19.1657 45.0693 18.3053 44.18 17.764C43.2907 17.2033 42.005 16.923 40.323 16.923H37.017V24.086ZM51.4268 26V11.906H53.3988L53.6018 14.458H53.6888C54.1722 13.5687 54.7522 12.863 55.4288 12.341C56.1248 11.819 56.8788 11.558 57.6908 11.558C58.2515 11.558 58.7542 11.6547 59.1988 11.848L58.7348 13.936C58.5028 13.8587 58.2902 13.8007 58.0968 13.762C57.9035 13.7233 57.6618 13.704 57.3718 13.704C56.7725 13.704 56.1442 13.9457 55.4868 14.429C54.8488 14.9123 54.2882 15.7533 53.8048 16.952V26H51.4268ZM64.0205 26.348C62.8412 26.348 61.8552 26 61.0625 25.304C60.2892 24.608 59.9025 23.622 59.9025 22.346C59.9025 20.7993 60.5889 19.62 61.9615 18.808C63.3342 17.9767 65.5285 17.3967 68.5445 17.068C68.5445 16.6233 68.4962 16.1883 68.3995 15.763C68.3222 15.3377 68.1772 14.9607 67.9645 14.632C67.7519 14.3033 67.4522 14.0423 67.0655 13.849C66.6982 13.6363 66.2245 13.53 65.6445 13.53C64.8325 13.53 64.0689 13.6847 63.3535 13.994C62.6382 14.3033 62.0002 14.6513 61.4395 15.038L60.5115 13.385C61.1689 12.9597 61.9712 12.5537 62.9185 12.167C63.8659 11.761 64.9099 11.558 66.0505 11.558C67.7712 11.558 69.0182 12.0897 69.7915 13.153C70.5649 14.197 70.9515 15.5987 70.9515 17.358V26H68.9795L68.7765 24.318H68.6895C68.0129 24.8787 67.2879 25.362 66.5145 25.768C65.7412 26.1547 64.9099 26.348 64.0205 26.348ZM64.7165 24.434C65.3932 24.434 66.0312 24.2793 66.6305 23.97C67.2299 23.6413 67.8679 23.1677 68.5445 22.549V18.634C67.3652 18.7887 66.3695 18.9723 65.5575 19.185C64.7649 19.3977 64.1172 19.649 63.6145 19.939C63.1312 20.229 62.7735 20.5673 62.5415 20.954C62.3289 21.3213 62.2225 21.7273 62.2225 22.172C62.2225 22.984 62.4642 23.564 62.9475 23.912C63.4309 24.26 64.0205 24.434 64.7165 24.434ZM80.9538 26.348C80.0258 26.348 79.1558 26.1837 78.3438 25.855C77.5318 25.5263 76.8261 25.0527 76.2268 24.434C75.6468 23.796 75.1828 23.0227 74.8348 22.114C74.5061 21.186 74.3418 20.142 74.3418 18.982C74.3418 17.8027 74.5255 16.7587 74.8928 15.85C75.2601 14.922 75.7531 14.139 76.3718 13.501C76.9905 12.863 77.7058 12.3797 78.5178 12.051C79.3491 11.7223 80.2191 11.558 81.1278 11.558C82.0558 11.558 82.8485 11.7223 83.5058 12.051C84.1631 12.3797 84.7431 12.7663 85.2458 13.211L84.0278 14.777C83.6218 14.4097 83.1868 14.11 82.7228 13.878C82.2781 13.646 81.7755 13.53 81.2148 13.53C80.5768 13.53 79.9871 13.6653 79.4458 13.936C78.9045 14.1873 78.4405 14.5547 78.0538 15.038C77.6671 15.5213 77.3578 16.1013 77.1258 16.778C76.9131 17.4353 76.8068 18.17 76.8068 18.982C76.8068 19.794 76.9131 20.5287 77.1258 21.186C77.3385 21.8433 77.6285 22.4137 77.9958 22.897C78.3825 23.361 78.8465 23.7283 79.3878 23.999C79.9291 24.2503 80.5188 24.376 81.1568 24.376C81.8141 24.376 82.4135 24.2407 82.9548 23.97C83.5155 23.68 84.0181 23.3417 84.4628 22.955L85.5068 24.55C84.8688 25.1107 84.1631 25.5553 83.3898 25.884C82.6165 26.1933 81.8045 26.348 80.9538 26.348ZM88.6114 26V5.352H90.9604V19.33H91.0474L97.0504 11.906H99.6894L94.9624 17.561L100.327 26H97.7174L93.5994 19.214L90.9604 22.288V26H88.6114ZM108.173 26.348C107.226 26.348 106.336 26.1837 105.505 25.855C104.693 25.507 103.978 25.0237 103.359 24.405C102.76 23.767 102.286 22.9937 101.938 22.085C101.59 21.1763 101.416 20.142 101.416 18.982C101.416 17.822 101.59 16.7877 101.938 15.879C102.305 14.951 102.779 14.168 103.359 13.53C103.958 12.892 104.635 12.4087 105.389 12.08C106.143 11.732 106.926 11.558 107.738 11.558C108.627 11.558 109.42 11.7127 110.116 12.022C110.831 12.3313 111.421 12.776 111.885 13.356C112.368 13.936 112.736 14.632 112.987 15.444C113.238 16.256 113.364 17.1647 113.364 18.17C113.364 18.4213 113.354 18.6727 113.335 18.924C113.335 19.156 113.316 19.359 113.277 19.533H103.765C103.862 21.041 104.326 22.2397 105.157 23.129C106.008 23.999 107.11 24.434 108.463 24.434C109.14 24.434 109.758 24.3373 110.319 24.144C110.899 23.9313 111.45 23.6607 111.972 23.332L112.813 24.898C112.194 25.2847 111.508 25.623 110.754 25.913C110 26.203 109.14 26.348 108.173 26.348ZM103.736 17.822H111.276C111.276 16.3913 110.967 15.3087 110.348 14.574C109.749 13.82 108.898 13.443 107.796 13.443C107.293 13.443 106.81 13.5397 106.346 13.733C105.901 13.9263 105.495 14.2163 105.128 14.603C104.761 14.9703 104.451 15.4247 104.2 15.966C103.968 16.5073 103.813 17.126 103.736 17.822ZM121.001 26.348C120.247 26.348 119.609 26.232 119.087 26C118.584 25.768 118.168 25.449 117.84 25.043C117.53 24.637 117.308 24.144 117.173 23.564C117.037 22.984 116.97 22.346 116.97 21.65V13.849H114.882V12.051L117.086 11.906L117.376 7.962H119.377V11.906H123.176V13.849H119.377V21.679C119.377 22.549 119.531 23.2257 119.841 23.709C120.169 24.173 120.74 24.405 121.552 24.405C121.803 24.405 122.074 24.3663 122.364 24.289C122.654 24.2117 122.915 24.1247 123.147 24.028L123.611 25.826C123.224 25.9613 122.799 26.0773 122.335 26.174C121.89 26.29 121.445 26.348 121.001 26.348ZM129.762 26.348C128.757 26.348 127.8 26.1643 126.891 25.797C125.983 25.4297 125.19 24.9657 124.513 24.405L125.702 22.81C126.321 23.3127 126.949 23.7187 127.587 24.028C128.245 24.3373 128.999 24.492 129.849 24.492C130.777 24.492 131.473 24.2793 131.937 23.854C132.401 23.4287 132.633 22.9067 132.633 22.288C132.633 21.9207 132.537 21.6017 132.343 21.331C132.15 21.0603 131.899 20.8283 131.589 20.635C131.299 20.4223 130.961 20.2387 130.574 20.084C130.188 19.9293 129.801 19.7747 129.414 19.62C128.912 19.446 128.409 19.2527 127.906 19.04C127.404 18.808 126.949 18.5373 126.543 18.228C126.157 17.8993 125.838 17.5223 125.586 17.097C125.335 16.6717 125.209 16.1593 125.209 15.56C125.209 14.9993 125.316 14.4773 125.528 13.994C125.76 13.4913 126.079 13.066 126.485 12.718C126.911 12.3507 127.423 12.0703 128.022 11.877C128.622 11.6643 129.298 11.558 130.052 11.558C130.942 11.558 131.754 11.7127 132.488 12.022C133.242 12.3313 133.89 12.7083 134.431 13.153L133.3 14.661C132.817 14.2937 132.314 13.994 131.792 13.762C131.27 13.53 130.7 13.414 130.081 13.414C129.192 13.414 128.535 13.617 128.109 14.023C127.703 14.429 127.5 14.9027 127.5 15.444C127.5 15.7727 127.587 16.0627 127.761 16.314C127.935 16.546 128.167 16.7587 128.457 16.952C128.747 17.126 129.076 17.2903 129.443 17.445C129.83 17.5803 130.226 17.7253 130.632 17.88C131.135 18.0733 131.638 18.2763 132.14 18.489C132.662 18.7017 133.126 18.9723 133.532 19.301C133.938 19.6103 134.267 19.997 134.518 20.461C134.789 20.925 134.924 21.4857 134.924 22.143C134.924 22.723 134.808 23.2643 134.576 23.767C134.364 24.2697 134.035 24.7143 133.59 25.101C133.165 25.4877 132.624 25.7873 131.966 26C131.328 26.232 130.594 26.348 129.762 26.348Z" fill="black"/>
</svg>
