<svg width="32" height="32" viewBox="0 0 32 32" fill="none" xmlns="http://www.w3.org/2000/svg">
<path d="M14.6667 9.33333V12H12V20H14.6667V22.6667H9.33333V9.33333H14.6667Z" fill="#90B0C6"/>
<path d="M20 20H17.3333V22.6667H22.6667V9.33333H17.3333V12H20V20Z" fill="#90B0C6"/>
<path fill-rule="evenodd" clip-rule="evenodd" d="M4 8C4 6.93913 4.42143 5.92172 5.17157 5.17157C5.92172 4.42143 6.93913 4 8 4H24C25.0609 4 26.0783 4.42143 26.8284 5.17157C27.5786 5.92172 28 6.93913 28 8V24C28 25.0609 27.5786 26.0783 26.8284 26.8284C26.0783 27.5786 25.0609 28 24 28H8C6.93913 28 5.92172 27.5786 5.17157 26.8284C4.42143 26.0783 4 25.0609 4 24V8ZM8 6.66667H24C24.3536 6.66667 24.6928 6.80714 24.9428 7.05719C25.1929 7.30724 25.3333 7.64638 25.3333 8V24C25.3333 24.3536 25.1929 24.6928 24.9428 24.9428C24.6928 25.1929 24.3536 25.3333 24 25.3333H8C7.64638 25.3333 7.30724 25.1929 7.05719 24.9428C6.80714 24.6928 6.66667 24.3536 6.66667 24V8C6.66667 7.64638 6.80714 7.30724 7.05719 7.05719C7.30724 6.80714 7.64638 6.66667 8 6.66667V6.66667Z" fill="#90B0C6"/>
</svg>
