<svg width="32" height="32" viewBox="0 0 32 32" fill="none" xmlns="http://www.w3.org/2000/svg">
<path d="M32 25.6C32 29.12 29.12 32 25.6 32H6.4C2.88 32 0 29.12 0 25.6V6.4C0 2.88 2.88 0 6.4 0H25.6C29.12 0 32 2.88 32 6.4V25.6Z" fill="#115A91"/>
<path d="M25.6 3.52C27.1881 3.52 28.48 4.81188 28.48 6.4V22.4C28.48 23.9881 27.1881 25.28 25.6 25.28H6.4C4.81188 25.28 3.52 23.9881 3.52 22.4V6.4C3.52 4.81188 4.81188 3.52 6.4 3.52H25.6" fill="white"/>
<path d="M25.6 3.52C27.1881 3.52 28.48 4.81188 28.48 6.4V22.4C28.48 23.9881 27.1881 25.28 25.6 25.28H6.4C4.81188 25.28 3.52 23.9881 3.52 22.4V6.4C3.52 4.81188 4.81188 3.52 6.4 3.52H25.6V3.52ZM25.6 0H6.4C2.88 0 0 2.88 0 6.4V22.4C0 25.92 2.88 28.8 6.4 28.8H25.6C29.12 28.8 32 25.92 32 22.4V6.4C32 2.88 29.12 0 25.6 0Z" fill="url(#paint0_linear)"/>
<g filter="url(#filter0_d)">
<path d="M24.96 6.72V22.08H16.96V18.24H21.44V10.24H16.96V6.72H24.96Z" fill="#4D4D4D"/>
</g>
<g filter="url(#filter1_d)">
<path d="M15.04 6.72V10.24H10.56V18.24H15.04V22.08H7.04V6.72H15.04Z" fill="#4D4D4D"/>
</g>
<defs>
<filter id="filter0_d" x="16.46" y="6.47" width="9" height="16.36" filterUnits="userSpaceOnUse" color-interpolation-filters="sRGB">
<feFlood flood-opacity="0" result="BackgroundImageFix"/>
<feColorMatrix in="SourceAlpha" type="matrix" values="0 0 0 0 0 0 0 0 0 0 0 0 0 0 0 0 0 0 127 0"/>
<feOffset dy="0.25"/>
<feGaussianBlur stdDeviation="0.25"/>
<feColorMatrix type="matrix" values="0 0 0 0 0 0 0 0 0 0 0 0 0 0 0 0 0 0 0.273992 0"/>
<feBlend mode="normal" in2="BackgroundImageFix" result="effect1_dropShadow"/>
<feBlend mode="normal" in="SourceGraphic" in2="effect1_dropShadow" result="shape"/>
</filter>
<filter id="filter1_d" x="6.54" y="6.47" width="9" height="16.36" filterUnits="userSpaceOnUse" color-interpolation-filters="sRGB">
<feFlood flood-opacity="0" result="BackgroundImageFix"/>
<feColorMatrix in="SourceAlpha" type="matrix" values="0 0 0 0 0 0 0 0 0 0 0 0 0 0 0 0 0 0 127 0"/>
<feOffset dy="0.25"/>
<feGaussianBlur stdDeviation="0.25"/>
<feColorMatrix type="matrix" values="0 0 0 0 0 0 0 0 0 0 0 0 0 0 0 0 0 0 0.273992 0"/>
<feBlend mode="normal" in2="BackgroundImageFix" result="effect1_dropShadow"/>
<feBlend mode="normal" in="SourceGraphic" in2="effect1_dropShadow" result="shape"/>
</filter>
<linearGradient id="paint0_linear" x1="16" y1="0" x2="16" y2="28.8" gradientUnits="userSpaceOnUse">
<stop stop-color="#29ABE2"/>
<stop offset="0.4757" stop-color="#28A9E1"/>
<stop offset="0.6639" stop-color="#23A2DC"/>
<stop offset="0.8012" stop-color="#1A96D4"/>
<stop offset="0.913" stop-color="#0E85C9"/>
<stop offset="1" stop-color="#0071BC"/>
</linearGradient>
</defs>
</svg>
