<svg width="32" height="32" viewBox="0 0 32 32" fill="none" xmlns="http://www.w3.org/2000/svg">
<path d="M26.24 14.4H5.76C4.8768 14.4 4.8 15.1152 4.8 16C4.8 16.8848 4.8768 17.6 5.76 17.6H26.24C27.1232 17.6 27.2 16.8848 27.2 16C27.2 15.1152 27.1232 14.4 26.24 14.4V14.4ZM26.24 20.8H5.76C4.8768 20.8 4.8 21.5152 4.8 22.4C4.8 23.2848 4.8768 24 5.76 24H26.24C27.1232 24 27.2 23.2848 27.2 22.4C27.2 21.5152 27.1232 20.8 26.24 20.8V20.8ZM5.76 11.2H26.24C27.1232 11.2 27.2 10.4848 27.2 9.6C27.2 8.7152 27.1232 8 26.24 8H5.76C4.8768 8 4.8 8.7152 4.8 9.6C4.8 10.4848 4.8768 11.2 5.76 11.2Z" fill="#616161"/>
</svg>
