<svg width="40" height="32" viewBox="0 0 40 32" xmlns="http://www.w3.org/2000/svg">
<g clip-path="url(#clip0)">
<path d="M39.3968 3.7905C38.2998 5.42222 36.954 6.81318 35.3593 7.96339C35.375 8.27187 35.3829 8.62053 35.3829 9.00938C35.3829 11.1699 35.0679 13.333 34.4379 15.4987C33.808 17.6644 32.8457 19.7374 31.5511 21.7177C30.2564 23.6979 28.7143 25.4522 26.9247 26.9806C25.1351 28.509 22.9838 29.7277 20.471 30.6366C17.9582 31.5456 15.2652 32 12.3919 32C7.90759 32 3.77802 30.7894 0.00315094 28.3683C0.673146 28.4428 1.31573 28.4801 1.9309 28.4801C5.67714 28.4801 9.02313 27.3262 11.9689 25.0184C10.2222 24.9864 8.65786 24.4487 7.27595 23.4053C5.89404 22.362 4.94304 21.0288 4.42296 19.4057C4.93703 19.5036 5.4444 19.5526 5.94507 19.5526C6.66575 19.5526 7.3749 19.4586 8.0725 19.2706C6.20843 18.8973 4.66203 17.9689 3.4333 16.4853C2.2046 15.0018 1.59026 13.2896 1.59026 11.3486V11.2486C2.73443 11.8821 3.95486 12.2191 5.25157 12.2595C4.14731 11.5233 3.2718 10.5634 2.62504 9.37955C1.97823 8.19574 1.65483 6.91466 1.65483 5.53629C1.65483 4.08257 2.01911 2.72889 2.74766 1.47523C4.7748 3.96285 7.2311 5.95103 10.1166 7.43978C13.0021 8.92854 16.0977 9.75536 19.4033 9.92022C19.2624 9.33264 19.1917 8.71947 19.1915 8.0807C19.1915 5.85039 19.9807 3.94603 21.5593 2.36762C23.1378 0.789205 25.0423 0 27.2726 0C29.6077 0 31.5745 0.850251 33.1731 2.55075C34.9997 2.18896 36.7099 1.53457 38.3038 0.587584C37.6897 2.52017 36.5064 4.01103 34.7539 5.06016C36.3646 4.86876 37.9122 4.44554 39.3968 3.7905H39.3968Z"/>
</g>
<defs>
<clipPath id="clip0">
<rect width="39.4" height="32"/>
</clipPath>
</defs>
</svg>
